<?xml version="1.0" encoding="UTF-8"?>
<svg xmlns="http://www.w3.org/2000/svg" xmlns:xlink="http://www.w3.org/1999/xlink" width="164px" height="18px" viewBox="0 0 164 18" version="1.1">
  <title>ic_logo_main_pc</title>
  <defs>
    <rect id="path-1" x="0" y="0" width="164" height="18"></rect>
    <path d="M15.3225225,0 C19.7927928,0 23.4990991,3.46846847 24.2018018,7.78198198 C24.2144144,7.86306306 24.3315315,7.86486486 24.3441441,7.78198198 C24.7315315,4.93513514 26.8234234,2.82162162 29.581982,2.00720721 C30.1135135,1.85045045 30.645045,2.26306306 30.645045,2.81621622 L30.645045,2.81621622 L30.645045,15.1711712 C30.645045,15.7207207 30.1261261,16.1225225 29.5927928,15.9855856 C26.9693694,15.3081081 24.9459459,12.9297297 24.4162162,10.1693694 C24.3981982,10.0846847 24.2828829,10.0900901 24.2738739,10.1747748 C23.8126126,14.6846847 19.981982,18 15.3225225,18 C10.8522523,18 7.14594595,14.5333333 6.44504505,10.2198198 C6.43063063,10.1387387 6.31351351,10.1369369 6.3009009,10.2198198 C5.91531532,13.0666667 3.82342342,15.1801802 1.06306306,15.9945946 C0.531531532,16.1513514 0,15.7405405 0,15.1855856 L0,15.1855856 L0,2.83063063 C0,2.28108108 0.518918919,1.87927928 1.05225225,2.01801802 C3.67747748,2.69369369 5.6990991,5.07207207 6.23063063,7.83423423 C6.24684685,7.91711712 6.36396396,7.91171171 6.37117117,7.82702703 C6.83243243,3.31711712 10.6630631,0 15.3225225,0 Z M120.175856,1.08486486 C122.28036,1.08486486 124.166205,1.65944637 125.789826,2.79659198 L126.091171,3.0163964 L124.147027,5.66504505 C122.772252,4.62900901 121.473153,4.13711712 120.065946,4.1172973 C119.397477,4.10648649 118.878559,4.25963964 118.561441,4.57315315 C118.332613,4.79837838 118.211892,5.10288288 118.211892,5.44882883 C118.211892,6.30339768 119.485002,6.98636637 120.647525,7.43391985 L120.820901,7.49927928 L120.957104,7.548662 C121.050931,7.58216216 121.150631,7.616997 121.255135,7.65423423 C123.123604,8.31009009 126.253333,9.40738739 126.287568,12.4362162 C126.233514,13.8920721 125.75964,14.9803604 124.878559,15.6668468 C123.734414,16.5569369 122.30018,16.9425225 120.231712,16.9154955 C117.720631,16.8846847 115.468104,16.1887883 113.69195,14.898868 L113.415495,14.6902703 L115.492973,12.0001802 C116.914595,13.2398198 118.411892,13.8524324 120.064144,13.8740541 C120.193874,13.8740541 121.435315,13.8740541 122.053333,13.2632432 C122.274955,13.0434234 122.388468,12.7731532 122.388468,12.4596396 C122.388468,11.5151201 120.72376,10.9727121 119.419449,10.5770968 L119.251532,10.5263063 L119.172252,10.5010811 C119.078559,10.4704505 118.581261,10.2902703 118.534414,10.2722523 C114.235315,8.65423423 114.314595,6.31009009 114.352432,5.17675676 C114.352432,2.35333333 117.757838,1.08486486 120.175856,1.08486486 Z M47.1803604,1.08702703 C49.9253453,1.1236036 52.4565025,2.6030971 53.8526324,4.97050924 L53.992973,5.21855856 L54.0776577,5.37531532 C53.5172973,5.64918919 51.6073874,6.58612613 50.9010811,6.93747748 L50.8913964,6.94175676 L50.8913964,6.94175676 L50.8830631,6.94468468 L50.8037838,6.80414414 C50.1071171,5.55801802 48.8039054,4.74769369 47.3653187,4.65432838 L47.1371171,4.64558559 L47.0506306,4.64378378 C45.647027,4.64378378 44.3190991,5.35009009 43.4992793,6.53027027 C42.6578378,7.74288288 42.4938739,9.2581982 43.0488288,10.687027 C43.5154955,11.887027 44.5227027,12.8113514 45.7443243,13.1645045 C47.8254054,13.7609009 49.8848649,12.9428829 50.8758559,11.1230631 C50.8758559,11.1212613 50.9263063,11.023964 50.9569369,10.9717117 C51.5052853,11.2574474 52.6970896,11.8747523 53.4914652,12.2865297 L53.6974775,12.3933333 L54.1245045,12.6131532 L54.0742847,12.7028685 C54.049982,12.7457658 54.0300901,12.7803604 54.029009,12.7825225 C52.6163964,15.3699099 50.0127928,16.9122523 47.0686486,16.9122523 C46.5533333,16.9122523 46.029009,16.8636036 45.5118919,16.7681081 C42.792973,16.2672072 40.5443243,14.3446847 39.6416216,11.7500901 C38.7551351,9.20234234 39.1245045,6.51945946 40.656036,4.39333333 C42.0905475,2.40268884 44.3563266,1.1833408 46.759796,1.09248953 L47.0488288,1.08702703 L47.1803604,1.08702703 Z M103.578559,1.15117117 L106.902883,6.49711712 L110.196577,1.16738739 L114.212793,1.16738739 L108.60018,10.1962162 L108.60018,16.9025225 L105.205586,16.9025225 L105.205586,10.1962162 L99.583964,1.16738739 L103.578559,1.15117117 Z M131.73009,1.19963964 L131.73009,16.9023423 L128.337297,16.9023423 L128.337297,1.19963964 L131.73009,1.19963964 Z M141.562883,1.21027027 C143.988509,1.21027027 146.320569,2.32135667 147.825395,4.28449255 L147.995315,4.51477477 L145.186306,6.42108108 C144.00973,4.81747748 141.952072,4.19225225 140.058378,4.86432432 C138.627748,5.36882883 137.546667,6.60846847 137.234955,8.10036036 C136.953874,9.4409009 137.281802,10.8120721 138.13045,11.8589189 C138.984505,12.9075676 140.243964,13.5075676 141.58991,13.5075676 C142.904968,13.5075676 143.997862,13.234135 144.769051,12.7132369 L144.941261,12.5886486 L145.006126,12.54 L145.006126,11.2210811 L142.422342,11.2210811 L142.422342,8.08774775 L148.400721,8.08774775 L148.400721,13.8445045 L148.011532,14.3147748 C146.613333,16.0066667 144.391712,16.9021622 141.58991,16.9021622 C139.344865,16.9021622 137.200721,15.9327928 135.707027,14.2427027 C134.195315,12.530991 133.51964,10.3327928 133.804324,8.04990991 C134.188108,4.97423423 136.438559,2.34540541 139.402523,1.50936937 C140.117838,1.30756757 140.845766,1.21027027 141.562883,1.21027027 Z M87.1493694,1.16792793 L94.1583784,1.25261261 C98.4845045,1.30846847 101.134955,4.30306306 101.073694,9.06882883 C101.013658,13.8611171 98.5033038,16.7620231 94.3413734,16.8761424 L94.0845045,16.8796396 L87.1493694,16.7931532 L87.1493694,1.16792793 Z M63.865045,1.16846847 L69.5190991,16.8441441 L65.8884685,16.8675676 L64.5911712,13.1900901 L58.9587387,13.1900901 L57.6956757,16.8441441 L54.0326126,16.8441441 L59.6848649,1.16846847 L63.865045,1.16846847 Z M74.5861261,1.15063063 L81.023964,11.4100901 L81.023964,1.16684685 L84.5735135,1.16684685 L84.5735135,16.8443243 L80.6437838,16.8443243 L74.3014414,7.06954955 L74.3014414,16.8443243 L70.7717117,16.8443243 L70.7717117,1.17225225 L74.5861261,1.15063063 Z M153.973514,1.15063063 L160.411351,11.4100901 L160.411351,1.16684685 L163.960901,1.16684685 L163.960901,16.8443243 L160.031171,16.8443243 L153.688829,7.06954955 L153.688829,16.8443243 L150.159099,16.8443243 L150.159099,1.17225225 L153.973514,1.15063063 Z M90.7601802,4.28504505 L90.7601802,13.7679279 L93.7637838,13.803964 L93.8322523,13.803964 C94.4178378,13.803964 95.4574775,13.6742342 96.2863063,12.8688288 C97.0736937,12.1048649 97.4827027,10.9192793 97.5007207,9.34630631 C97.5427952,6.04170441 96.27658,4.43770859 93.5211762,4.32022754 L93.2881081,4.31387387 L90.7601802,4.28504505 Z M61.774955,5.26756757 L59.9803604,10.2837838 L63.5695495,10.2837838 L61.774955,5.26756757 Z" id="path-3"></path>
  </defs>
  <g id="main" stroke="none" stroke-width="1" fill="none" fill-rule="evenodd">
    <g id="PC---制糖工厂主页" transform="translate(-95.000000, -106.000000)">
      <g id="ic_logo_main_pc" transform="translate(95.000000, 106.000000)">
        <mask id="mask-2" fill="white">
          <use xlink:href="#path-1"></use>
        </mask>
        <g id="Mask"></g>
        <g id="content" mask="url(#mask-2)">
          <mask id="mask-4" fill="white">
            <use xlink:href="#path-3"></use>
          </mask>
          <use id="Mask" fill="#D43927" xlink:href="#path-3"></use>
        </g>
      </g>
    </g>
  </g>
</svg>
