<svg xmlns="http://www.w3.org/2000/svg" width="148" height="36" viewBox="0 0 148 36">
  <g id="组_9770" data-name="组 9770" transform="translate(-239.828 -14)">
    <path id="路径_9009" data-name="路径 9009" d="M0,0H148V36H0Z" transform="translate(239.828 14)" fill="none" opacity="0"/>
    <g id="组_9597" data-name="组 9597" transform="translate(104.045 -148.658)">
      <g id="组_8205" data-name="组 8205" transform="translate(137 173.786)">
        <path id="路径_7193" data-name="路径 7193" d="M2641.7,2720.5a4.888,4.888,0,0,1,1.538,1.621l.21.292,2.345-1.7-.2-.277a7.3,7.3,0,0,0-2.577-2.517,5.568,5.568,0,0,0-7.121,1.688,4.465,4.465,0,0,0,1,6.135,10.6,10.6,0,0,0,2.994,1.372c1.917.648,2.777,1.041,2.958,2.087a1.853,1.853,0,0,1-.847,1.885,3.4,3.4,0,0,1-3.213.082,7.629,7.629,0,0,1-2.669-2.711l-2.366,1.67a10.186,10.186,0,0,0,3.811,3.666,6.7,6.7,0,0,0,2.827.635,5.844,5.844,0,0,0,3.189-.912,4.768,4.768,0,0,0,2.123-4.807c-.492-2.855-3.031-3.712-4.885-4.338a8.5,8.5,0,0,1-2.194-.953,1.6,1.6,0,0,1-.318-2.209A2.721,2.721,0,0,1,2641.7,2720.5Z" transform="translate(-2633.759 -2717.288)" fill="#14151a"/>
        <path id="路径_7194" data-name="路径 7194" d="M2735.829,2717.986a8.46,8.46,0,1,0,8.46,8.459A8.469,8.469,0,0,0,2735.829,2717.986Zm0,14.023a5.563,5.563,0,1,1,5.564-5.563A5.569,5.569,0,0,1,2735.829,2732.009Z" transform="translate(-2698.832 -2717.773)" fill="#14151a"/>
        <path id="路径_7198" data-name="路径 7198" d="M2926.08,2727.783h6.783v-2.9h-6.783v-4.164h7.392v-2.9h-10.289v17.019h10.956v-2.9h-8.06Z" transform="translate(-2834.951 -2717.663)" fill="#14151a"/>
        <path id="路径_7199" data-name="路径 7199" d="M2689.036,2724.888h-7v-7.06h-2.9v17.019h2.9v-7.063h7v7.063h2.9v-17.019h-2.9Z" transform="translate(-2665.307 -2717.664)" fill="#14151a"/>
        <path id="路径_7200" data-name="路径 7200" d="M2801.653,2717.743l-3.076,11.478-3.07-11.453.006-.024H2792.5l.006.024-3.07,11.453-3.076-11.478h-3l4.573,17.069h3l3.067-11.45,3.07,11.45h3l4.576-17.069Z" transform="translate(-2737.757 -2717.604)" fill="#14151a"/>
        <path id="路径_7201" data-name="路径 7201" d="M2863,2717.743l-3.064,11.429-3.064-11.429h-3.012l-4.576,17.069h3l3.082-11.5,3.07,11.457-.012.046h3.024l-.012-.046,3.067-11.457,3.085,11.5h3l-4.576-17.069Z" transform="translate(-2783.581 -2717.604)" fill="#14151a"/>
      </g>
      <g id="组_8204" data-name="组 8204" transform="translate(237.47 166)">
        <path id="路径_7195" data-name="路径 7195" d="M2974.08,2725.774a4.979,4.979,0,0,0-3.93-8.045h-6.823v17.049h7.813a4.98,4.98,0,0,0,2.94-9Zm-7.856-5.148h3.927a2.09,2.09,0,0,1,0,4.18h-3.927Zm4.916,11.257h-4.916v-4.18h4.916a2.09,2.09,0,1,1,0,4.18Z" transform="translate(-2963.327 -2709.808)" fill="#f23030"/>
        <path id="路径_7196" data-name="路径 7196" d="M3019.067,2728.4a3.494,3.494,0,0,1-6.988,0v-10.656h-2.9V2728.4a6.39,6.39,0,1,0,12.779,0v-10.656h-2.9Z" transform="translate(-2995.204 -2709.816)" fill="#f23030"/>
        <path id="路径_7197" data-name="路径 7197" d="M3064.195,2724.9l6.685,6.685-1.024,1.021a8.456,8.456,0,1,1,2.478-5.978h-2.9a5.551,5.551,0,1,0-2.787,4.823l-4.5-4.5Z" transform="translate(-3027.342 -2710.112)" fill="#f23030"/>
        <path id="路径_7202" data-name="路径 7202" d="M3069.384,2698.425a9.119,9.119,0,0,1,5.735,2.037l.3.248-.058-.389a6.022,6.022,0,0,0-3.375-4.56,8.562,8.562,0,0,1,1.4-1.691,1.17,1.17,0,0,0,.37.059,1.192,1.192,0,1,0-1.192-1.192,1.057,1.057,0,0,0,.048.3,9.463,9.463,0,0,0-1.706,2.12,6.109,6.109,0,0,0-3.052,0,9.389,9.389,0,0,0-1.705-2.125,1.061,1.061,0,0,0,.047-.3,1.192,1.192,0,1,0-1.192,1.192,1.161,1.161,0,0,0,.373-.061,8.358,8.358,0,0,1,1.4,1.693,6.022,6.022,0,0,0-3.374,4.56l-.058.389.305-.248A9.116,9.116,0,0,1,3069.384,2698.425Z" transform="translate(-3032.854 -2691.746)" fill="#f23030"/>
      </g>
    </g>
  </g>
</svg>
